<svg xmlns="http://www.w3.org/2000/svg" viewBox="0 0 200 180" fill="none">
  <!-- Centered Monogram -->
  <g transform="translate(68, 16)">
    <rect width="64" height="64" rx="10" fill="#101210"/>
    <rect x="0.75" y="0.75" width="62.5" height="62.5" rx="9.25" stroke="#2E342E" stroke-width="1.5"/>
    <g transform="translate(13, 15)">
      <!-- J -->
      <path d="M14 0H22V22C22 28 17 32 10 32C4 32 1 28 1 23H8C8 25 10 26 12 26C14 26 15 25 15 22V0H14Z" fill="#FFFFFF"/>
      <!-- S -->
      <path d="M22 23H28C28.2 25 30 26.2 32.5 26.2C35 26.2 36.5 25 36.5 23.2C36.5 19.8 24 18 24 9.5C24 3.8 28.5 0 35 0C41.5 0 45 4 45.2 9H39C38.8 6.5 37 5.5 34.8 5.5C32.5 5.5 31 6.8 31 8.5C31 11.5 43.5 13 43.5 22C43.5 28.2 38.5 32 32 32C25 32 22.2 27.5 22 23Z" fill="#39FF14"/>
    </g>
    <circle cx="52" cy="52" r="2.5" fill="#39FF14"/>
  </g>

  <!-- Typography: JEFF SANTOS -->
  <text x="100" y="118" text-anchor="middle" font-family="'Anton', 'Arial Narrow', sans-serif" font-size="28" font-weight="bold" letter-spacing="-0.02em" fill="#FFFFFF">
    JEFF SANTOS
  </text>
  
  <!-- Subtitle: EDITORIAL ARCHITECTURE -->
  <text x="100" y="140" text-anchor="middle" font-family="'JetBrains Mono', 'Geist Mono', monospace" font-size="8.5" font-weight="500" letter-spacing="0.16em" fill="#949E97">
    EDITORIAL ARCHITECTURE
  </text>
</svg>
